<svg xmlns="http://www.w3.org/2000/svg" viewBox="0 0 64 64" fill="none">
  <defs>
    <linearGradient id="b" x1="0" y1="0" x2="1" y2="1">
      <stop stop-color="#38bdf8"/><stop offset="1" stop-color="#0284c7"/>
    </linearGradient>
    <linearGradient id="g" x1="0" y1="0" x2="1" y2="1">
      <stop stop-color="#22d3ee"/><stop offset="1" stop-color="#34d399"/>
    </linearGradient>
  </defs>
  <path d="M31 8c-10 0-17 7-18 16-6 1-9 6-9 12 0 7 5 12 11 13 3 5 8 7 16 7z" stroke="url(#b)" stroke-width="3.5" stroke-linejoin="round"/>
  <path d="M31 8c10 0 17 7 18 16 6 1 9 6 9 12 0 7-5 12-11 13-3 5-8 7-16 7z" stroke="url(#g)" stroke-width="3.5" stroke-linejoin="round"/>
  <path d="M31 9v47M14 29h8l4 5h5M13 39h9l4-4h5" stroke="#38bdf8" stroke-width="2.5" stroke-linecap="round"/>
  <path d="M38 46V28c0-3 4-3 4 0v8-12c0-3 4-3 4 0v12-9c0-3 4-3 4 0v13" stroke="#34d399" stroke-width="2.5" stroke-linecap="round" stroke-linejoin="round"/>
  <path d="M52 8v10M47 13h10" stroke="#34d399" stroke-width="3" stroke-linecap="round"/>
</svg>
